<?xml version="1.0" encoding="utf-8" ?>
<svg baseProfile="tiny" height="200" version="1.2" viewBox="0,0,1229,200" width="1229" xmlns="http://www.w3.org/2000/svg" xmlns:ev="http://www.w3.org/2001/xml-events" xmlns:xlink="http://www.w3.org/1999/xlink"><defs /><rect fill="rgb(0,0,0)" fill-opacity="0.0" height="14.161" id="rect0" rx="3" ry="3" stroke="white" stroke-width="3px" transform="translate(2, 100)" width="12" x="0" y="-7.0805" /><rect fill="rgb(0,0,0)" fill-opacity="0.0" height="20.93" id="rect1" rx="3" ry="3" stroke="white" stroke-width="3px" transform="translate(26, 100)" width="12" x="0" y="-10.465" /><rect fill="rgb(0,0,0)" fill-opacity="0.0" height="29.503" id="rect2" rx="3" ry="3" stroke="white" stroke-width="3px" transform="translate(50, 100)" width="12" x="0" y="-14.7515" /><rect fill="rgb(0,0,0)" fill-opacity="0.0" height="42.139" id="rect3" rx="3" ry="3" stroke="white" stroke-width="3px" transform="translate(74, 100)" width="12" x="0" y="-21.0695" /><rect fill="rgb(0,0,0)" fill-opacity="0.0" height="54.774" id="rect4" rx="3" ry="3" stroke="white" stroke-width="3px" transform="translate(98, 100)" width="12" x="0" y="-27.387" /><rect fill="rgb(0,0,0)" fill-opacity="0.0" height="103.059" id="rect5" rx="3" ry="3" stroke="white" stroke-width="3px" transform="translate(122, 100)" width="12" x="0" y="-51.5295" /><rect fill="rgb(0,0,0)" fill-opacity="0.0" height="20.93" id="rect6" rx="3" ry="3" stroke="white" stroke-width="3px" transform="translate(146, 100)" width="12" x="0" y="-10.465" /><rect fill="rgb(0,0,0)" fill-opacity="0.0" height="25.085" id="rect7" rx="3" ry="3" stroke="white" stroke-width="3px" transform="translate(170, 100)" width="12" x="0" y="-12.5425" /><rect fill="rgb(0,0,0)" fill-opacity="0.0" height="43.139" id="rect8" rx="3" ry="3" stroke="white" stroke-width="3px" transform="translate(194, 100)" width="12" x="0" y="-21.5695" /><rect fill="rgb(0,0,0)" fill-opacity="0.0" height="19.125" id="rect9" rx="3" ry="3" stroke="white" stroke-width="3px" transform="translate(218, 100)" width="12" x="0" y="-9.5625" /><rect fill="rgb(0,0,0)" fill-opacity="0.0" height="14.161" id="rect10" rx="3" ry="3" stroke="white" stroke-width="3px" transform="translate(242, 100)" width="12" x="0" y="-7.0805" /><rect fill="rgb(0,0,0)" fill-opacity="0.0" height="21.381" id="rect11" rx="3" ry="3" stroke="white" stroke-width="3px" transform="translate(266, 100)" width="12" x="0" y="-10.6905" /><rect fill="rgb(0,0,0)" fill-opacity="0.0" height="54.774" id="rect12" rx="3" ry="3" stroke="white" stroke-width="3px" transform="translate(290, 100)" width="12" x="0" y="-27.387" /><rect fill="rgb(0,0,0)" fill-opacity="0.0" height="20.379" id="rect13" rx="3" ry="3" stroke="white" stroke-width="3px" transform="translate(314, 100)" width="12" x="0" y="-10.1895" /><rect fill="rgb(0,0,0)" fill-opacity="0.0" height="36.724" id="rect14" rx="3" ry="3" stroke="white" stroke-width="3px" transform="translate(338, 100)" width="12" x="0" y="-18.362" /><rect fill="rgb(0,0,0)" fill-opacity="0.0" height="103.51" id="rect15" rx="3" ry="3" stroke="white" stroke-width="3px" transform="translate(362, 100)" width="12" x="0" y="-51.755" /><rect fill="rgb(0,0,0)" fill-opacity="0.0" height="44.395" id="rect16" rx="3" ry="3" stroke="white" stroke-width="3px" transform="translate(386, 100)" width="12" x="0" y="-22.1975" /><rect fill="rgb(0,0,0)" fill-opacity="0.0" height="21.381" id="rect17" rx="3" ry="3" stroke="white" stroke-width="3px" transform="translate(410, 100)" width="12" x="0" y="-10.6905" /><rect fill="rgb(0,0,0)" fill-opacity="0.0" height="14.612" id="rect18" rx="3" ry="3" stroke="white" stroke-width="3px" transform="translate(434, 100)" width="12" x="0" y="-7.306" /><rect fill="rgb(0,0,0)" fill-opacity="0.0" height="29.503" id="rect19" rx="3" ry="3" stroke="white" stroke-width="3px" transform="translate(458, 100)" width="12" x="0" y="-14.7515" /><rect fill="rgb(0,0,0)" fill-opacity="0.0" height="54.774" id="rect20" rx="3" ry="3" stroke="white" stroke-width="3px" transform="translate(482, 100)" width="12" x="0" y="-27.387" /><rect fill="rgb(0,0,0)" fill-opacity="0.0" height="42.139" id="rect21" rx="3" ry="3" stroke="white" stroke-width="3px" transform="translate(506, 100)" width="12" x="0" y="-21.0695" /><rect fill="rgb(0,0,0)" fill-opacity="0.0" height="73.727" id="rect22" rx="3" ry="3" stroke="white" stroke-width="3px" transform="translate(530, 100)" width="12" x="0" y="-36.8635" /><rect fill="rgb(0,0,0)" fill-opacity="0.0" height="99.9" id="rect23" rx="3" ry="3" stroke="white" stroke-width="3px" transform="translate(554, 100)" width="12" x="0" y="-49.95" /><rect fill="rgb(0,0,0)" fill-opacity="0.0" height="56.579" id="rect24" rx="3" ry="3" stroke="white" stroke-width="3px" transform="translate(578, 100)" width="12" x="0" y="-28.2895" /><rect fill="rgb(0,0,0)" fill-opacity="0.0" height="25.442" id="rect25" rx="3" ry="3" stroke="white" stroke-width="3px" transform="translate(602, 100)" width="12" x="0" y="-12.721" /><rect fill="rgb(0,0,0)" fill-opacity="0.0" height="14.161" id="rect26" rx="3" ry="3" stroke="white" stroke-width="3px" transform="translate(626, 100)" width="12" x="0" y="-7.0805" /><rect fill="rgb(0,0,0)" fill-opacity="0.0" height="20.93" id="rect27" rx="3" ry="3" stroke="white" stroke-width="3px" transform="translate(650, 100)" width="12" x="0" y="-10.465" /><rect fill="rgb(0,0,0)" fill-opacity="0.0" height="11.904" id="rect28" rx="3" ry="3" stroke="white" stroke-width="3px" transform="translate(674, 100)" width="12" x="0" y="-5.952" /><rect fill="rgb(0,0,0)" fill-opacity="0.0" height="36.662" id="rect29" rx="3" ry="3" stroke="white" stroke-width="3px" transform="translate(698, 100)" width="12" x="0" y="-18.331" /><rect fill="rgb(0,0,0)" fill-opacity="0.0" height="62.897" id="rect30" rx="3" ry="3" stroke="white" stroke-width="3px" transform="translate(722, 100)" width="12" x="0" y="-31.4485" /><rect fill="rgb(0,0,0)" fill-opacity="0.0" height="103.059" id="rect31" rx="3" ry="3" stroke="white" stroke-width="3px" transform="translate(746, 100)" width="12" x="0" y="-51.5295" /><rect fill="rgb(0,0,0)" fill-opacity="0.0" height="19.125" id="rect32" rx="3" ry="3" stroke="white" stroke-width="3px" transform="translate(770, 100)" width="12" x="0" y="-9.5625" /><rect fill="rgb(0,0,0)" fill-opacity="0.0" height="7.392" id="rect33" rx="3" ry="3" stroke="white" stroke-width="3px" transform="translate(794, 100)" width="12" x="0" y="-3.696" /><rect fill="rgb(0,0,0)" fill-opacity="0.0" height="7.392" id="rect34" rx="3" ry="3" stroke="white" stroke-width="3px" transform="translate(818, 100)" width="12" x="0" y="-3.696" /><rect fill="rgb(0,0,0)" fill-opacity="0.0" height="47.554" id="rect35" rx="3" ry="3" stroke="white" stroke-width="3px" transform="translate(842, 100)" width="12" x="0" y="-23.777" /><rect fill="rgb(0,0,0)" fill-opacity="0.0" height="19.125" id="rect36" rx="3" ry="3" stroke="white" stroke-width="3px" transform="translate(866, 100)" width="12" x="0" y="-9.5625" /><rect fill="rgb(0,0,0)" fill-opacity="0.0" height="7.392" id="rect37" rx="3" ry="3" stroke="white" stroke-width="3px" transform="translate(890, 100)" width="12" x="0" y="-3.696" /><rect fill="rgb(0,0,0)" fill-opacity="0.0" height="62.897" id="rect38" rx="3" ry="3" stroke="white" stroke-width="3px" transform="translate(914, 100)" width="12" x="0" y="-31.4485" /><rect fill="rgb(0,0,0)" fill-opacity="0.0" height="42.139" id="rect39" rx="3" ry="3" stroke="white" stroke-width="3px" transform="translate(938, 100)" width="12" x="0" y="-21.0695" /><rect fill="rgb(0,0,0)" fill-opacity="0.0" height="54.774" id="rect40" rx="3" ry="3" stroke="white" stroke-width="3px" transform="translate(962, 100)" width="12" x="0" y="-27.387" /><rect fill="rgb(0,0,0)" fill-opacity="0.0" height="99.9" id="rect41" rx="3" ry="3" stroke="white" stroke-width="3px" transform="translate(986, 100)" width="12" x="0" y="-49.95" /><rect fill="rgb(0,0,0)" fill-opacity="0.0" height="36.662" id="rect42" rx="3" ry="3" stroke="white" stroke-width="3px" transform="translate(1010, 100)" width="12" x="0" y="-18.331" /><rect fill="rgb(0,0,0)" fill-opacity="0.0" height="20.93" id="rect43" rx="3" ry="3" stroke="white" stroke-width="3px" transform="translate(1034, 100)" width="12" x="0" y="-10.465" /><rect fill="rgb(0,0,0)" fill-opacity="0.0" height="8.746" id="rect44" rx="3" ry="3" stroke="white" stroke-width="3px" transform="translate(1058, 100)" width="12" x="0" y="-4.373" /><rect fill="rgb(0,0,0)" fill-opacity="0.0" height="73.727" id="rect45" rx="3" ry="3" stroke="white" stroke-width="3px" transform="translate(1082, 100)" width="12" x="0" y="-36.8635" /><rect fill="rgb(0,0,0)" fill-opacity="0.0" height="99.9" id="rect46" rx="3" ry="3" stroke="white" stroke-width="3px" transform="translate(1106, 100)" width="12" x="0" y="-49.95" /><rect fill="rgb(0,0,0)" fill-opacity="0.0" height="56.579" id="rect47" rx="3" ry="3" stroke="white" stroke-width="3px" transform="translate(1130, 100)" width="12" x="0" y="-28.2895" /><rect fill="rgb(0,0,0)" fill-opacity="0.0" height="25.442" id="rect48" rx="3" ry="3" stroke="white" stroke-width="3px" transform="translate(1154, 100)" width="12" x="0" y="-12.721" /><rect fill="rgb(0,0,0)" fill-opacity="0.0" height="14.161" id="rect49" rx="3" ry="3" stroke="white" stroke-width="3px" transform="translate(1178, 100)" width="12" x="0" y="-7.0805" /><rect fill="rgb(0,0,0)" fill-opacity="0.0" height="20.93" id="rect50" rx="3" ry="3" stroke="white" stroke-width="3px" transform="translate(1202, 100)" width="12" x="0" y="-10.465" /></svg>